<svg version="1" xmlns="http://www.w3.org/2000/svg" width="933.333" height="933.333" viewBox="0 0 700.000000 700.000000"><path d="M.4 52.9C.2 53.1 0 72 0 94.8c0 35.6.2 41.9 1.6 44.7 2.9 6.2 11.4 8 17.2 3.6 4.3-3.2 4.7-6.8 4.6-37.9V76l2.5-.1c1.4 0 15 0 30.1-.1 22.6 0 28.1-.3 30.8-1.5 8.3-3.9 8.1-17-.2-20.5-2.3-.9-13.4-1.3-44.4-1.3-22.7 0-41.5.2-41.8.4zM600.8 54.2c-6.5 4-7.4 12.9-1.7 18.4l3 2.9 34.7.2c19.1.1 35.9.3 37.3.3h2.6v30.2c0 19.3.4 31.3 1.1 33 3.5 8.6 18 8.2 21.2-.6.6-1.8 1-18.2 1-44.5V52.5h-48.1c-44.1 0-48.4.1-51.1 1.7zM53.9 123.6c-1.9.8-4.3 2.9-5.4 4.6-1.8 3.1-1.9 6.9-2 86.3 0 45.6.3 84.3.7 86 1.8 7.2 11 10.7 17.2 6.6 5.8-3.8 5.5.3 5.6-91.1 0-81.9-.1-84.6-2-87.7-3.1-5.2-8.5-7-14.1-4.7zM100.2 123.7c-1.7.8-3.9 2.7-4.9 4.2-1.7 2.4-1.8 7.5-2 86.1-.2 91.5-.3 89.8 5.6 93.3 3.7 2.2 8.5 2.2 12.1.1 5.9-3.6 5.7-.2 5.7-91.4 0-50.4-.4-84.6-.9-86.3-2-5.7-9.9-8.8-15.6-6zM136.3 123.1c-1.8.5-4.2 2.4-5.5 4.2l-2.3 3.2v85.1c0 68.8.3 85.6 1.3 87.6 2.9 5.3 10.7 7.4 16.1 4.2 5.9-3.5 5.6 1.4 5.7-89.9 0-46.2-.3-85.4-.8-87.2-1.4-5.5-8.3-8.9-14.5-7.2zM192.7 124.3c-2 1.1-4.2 3.4-4.8 5-1 2.3-1.3 22.2-1.3 84.6-.1 44.9.2 83.3.5 85.5 1.4 8 10.2 12 17.2 7.7 1.8-1.1 3.9-3.2 4.5-4.6.9-1.9 1.2-24.6 1.2-86.8 0-81.6-.1-84.3-2-87.4-3.4-5.7-9.6-7.3-15.3-4zM228.9 123.7c-1.9.7-4.3 2.8-5.4 4.5-1.8 3.1-1.9 6.8-1.9 85.8-.1 45.4.2 84 .6 85.9 1.5 7.6 10.4 11.4 17.1 7.2 1.8-1.1 3.9-3.2 4.5-4.6.9-1.9 1.2-24.7 1.2-87.3v-84.8l-2.7-3.2c-3.5-4.1-8.6-5.5-13.4-3.5zM263.4 123.9c-7.1 3.2-6.8-1.1-6.9 90 0 44.9.3 83.4.8 85.6.4 2.2 1.8 5 3.1 6.3 3.1 3.1 9.3 3.9 13.5 1.7 6.3-3.2 6.1 0 6.1-92.2 0-81.2-.1-83.9-2-87-3.3-5.5-8.6-7.1-14.6-4.4zM332.6 124.3c-1.9 1.1-4.1 3.4-4.7 5-1 2.4-1.3 22-1.4 85.1 0 45.2.3 83.6.7 85.5 1.5 7.6 10.4 11.4 17.1 7.2 1.8-1.1 3.9-3.2 4.5-4.6 1.8-3.8 1.7-170-.1-173.4-3-6-10.2-8.1-16.1-4.8zM391.1 124.1c-6.4 3.9-6.1-.6-6.1 91.9 0 92.3-.3 88.3 6 91.5 6.8 3.5 14.6.4 16.6-6.7.5-2 .9-36.6.9-86.3-.1-79.6-.2-83.1-2-86.2-3.1-5.3-10.4-7.3-15.4-4.2zM428.3 123.2c-1.8.5-4.4 2.3-5.8 4.2l-2.5 3.3v84.7c0 93.3-.3 88.8 6.2 92.2 6.7 3.5 15.2-.4 16.6-7.7.4-1.9.7-40.5.6-85.9-.1-74.2-.2-82.8-1.7-85.6-.9-1.7-2.4-3.5-3.4-3.9-4.4-1.8-7-2.1-10-1.3zM487.1 123.1c-1.8.4-3.9 1.3-4.7 2-4.1 4.2-4 3-4 91.9l.1 85.2 3.7 3.4c4.2 3.8 8 4.4 13.2 1.9 6.5-3.1 6.1 2.4 6.2-90.5.1-51-.3-85.6-.8-87.3-1.8-5-7.7-7.9-13.7-6.6zM520.3 123.7c-1.8.8-4 2.7-5 4.2-1.7 2.4-1.8 7.5-2 86.1-.2 91.6-.3 89.8 5.6 93.3 3.7 2.2 8.5 2.2 12.2 0 5.9-3.5 5.8-2 5.7-91.3 0-46.5-.4-83.1-.9-85.2-1.6-6.4-9.6-10.1-15.6-7.1zM590.2 123.7c-1.7.8-3.9 2.7-4.9 4.2-1.7 2.4-1.8 7.5-1.9 87.1-.1 92.3-.3 88.8 5.6 92.4 4.7 2.7 9.5 2.1 13.8-1.8l3.7-3.4.1-84.9c.1-65.3-.1-85.5-1.1-87.8-2.3-5.7-9.7-8.5-15.3-5.8zM637.2 123.6c-1.6.6-3.9 2.5-5.1 4.2l-2.1 3v84.7c0 93.2-.3 88.7 6.2 92.1 6.9 3.6 15.4-.6 16.7-8.2.3-2.2.6-40.8.6-85.9-.1-78.4-.2-82.2-2-85.2-2.9-5-9-7-14.3-4.7zM14.5 321c-3.8.3-8 1.1-9.2 1.8-2.6 1.4-5.3 6.1-5.3 9.2 0 3.9 2.8 8.9 6 10.5 3 1.5 29.7 1.7 344.5 1.7h341.3l3.1-2.3c3-2.2 5.1-6.4 5.1-10.3 0-3.2-3.7-8.5-6.7-9.7-2.7-1-664.8-1.9-678.8-.9zM53.1 357.3c-1.3.6-3.3 2.4-4.4 3.9-2 2.7-2.1 3.8-2.1 105.2 0 94.8.1 102.6 1.7 105 2.6 3.9 6.5 6 10.5 5.8 4.7-.4 6.9-1.7 9.2-5.5 1.9-3.1 2-6 2-104.5 0-85.3-.2-101.8-1.4-104.7-2.4-5.6-9.9-8.1-15.5-5.2zM98.8 357.7c-5.6 3.5-5.5 2.7-5.4 63.4l.1 56.1 3.7 3.4c4.3 3.9 9.1 4.5 13.8 1.8 5.8-3.5 5.7-2.9 5.6-62.9-.1-52.3-.2-55.2-2-58.2-3.3-5.3-10.4-6.9-15.8-3.6zM133.8 357.7c-5.5 3.4-5.4 2.7-5.4 63.3l.1 56.2 3.7 3.4c2.9 2.6 4.7 3.4 7.5 3.4 4.4 0 9.6-3.3 11-7 .6-1.6.9-23.5.9-58.4l-.1-55.8-3.7-3.4c-4.3-3.9-9.4-4.5-14-1.7zM193.1 357.3c-1.3.6-3.3 2.4-4.4 3.9-2 2.6-2 4.3-2.1 56.5-.1 29.6.2 55.3.6 57.2 1.4 7.3 9.9 11.2 16.6 7.7 6.3-3.3 6.2-1.9 6.2-62.6 0-60.4.1-59.3-6-62.5-3.5-1.8-7.6-1.9-10.9-.2zM226 358.7c-1.8 1.6-3.4 4.3-3.8 6.3-.6 2.7-.8 91-.3 108.8.1 4.9 5.6 10.2 10.5 10.2 5.2 0 9.5-2.5 11.2-6.5 2.2-5.3 2.1-111.3-.1-115.5-3.3-6.3-12.3-8-17.5-3.3zM263.1 357.3c-1.3.6-3.3 2.4-4.4 3.9-2 2.7-2.1 4.1-2.1 57.3-.1 30 .2 55.8.6 57.3 2.5 9.4 16.8 10.9 21.3 2.2 2.2-4.2 2.3-110.2.1-115.5-2.4-5.6-9.9-8.1-15.5-5.2zM333.1 357.3c-1.3.6-3.3 2.4-4.4 3.9-2 2.7-2 4.2-2.1 56-.1 29.3.2 55 .5 57.2 1.8 10.5 16.5 13 21.4 3.6 2.2-4.2 2.3-110.2.1-115.5-2.4-5.6-9.9-8.1-15.5-5.2zM390.8 357.6c-5.9 3.1-5.8 2.3-5.8 61.9 0 59.9 0 59.9 5.9 62.9 5 2.7 9.5 2.1 13.5-1.8 2.7-2.5 3.6-4.2 3.7-6.7.6-18.2.2-107.1-.4-109.4-2.1-7.1-10.4-10.5-16.9-6.9zM425.8 357.5c-5.9 3.3-5.8 2.4-5.8 62 0 60.2 0 59.9 6.1 63 6.9 3.6 16.8-1.2 17-8.3.4-13.8.3-105.6-.2-108.6-.4-2.1-1.8-5-3.2-6.3-3.1-3.2-10-4-13.9-1.8zM483.8 357.7c-5.4 3.4-5.3 2.2-5.3 62.3 0 60.3-.1 59 5.5 62.3 4.7 2.8 9.5 2.2 13.8-1.7l3.7-3.4.1-56.1c.1-45.7-.2-56.5-1.3-58.9-2.8-5.7-10.9-7.9-16.5-4.5zM519.5 357.1c-1.1.6-2.9 2.2-4 3.7-1.9 2.6-2 4.3-2 59.5v56.9l3.7 3.4c4.3 3.9 9.1 4.5 13.8 1.7 5.5-3.2 5.4-2.4 5.6-61.8.1-53.3.1-55.1-1.9-58.6-1.1-2.1-3-4.2-4.4-4.8-2.9-1.3-8.1-1.3-10.8 0zM588.9 357.7c-5.6 3.4-5.4 1.3-5.5 61.3-.2 53.9-.1 55.6 1.8 59.1 3.3 5.9 10 7.7 15.9 4.2 5.7-3.4 5.6-2.4 5.5-63.1-.1-54.1-.2-55.8-2.1-58.4-3.7-4.9-10.5-6.3-15.6-3.1zM635.4 357.9c-1.7 1-3.6 3.4-4.3 5.2-.8 2.3-1.1 31.7-1.1 104.3 0 98.3.1 101.2 2 104.3 2.2 3.7 5 5.4 9 5.5 4.4.1 8.4-2 10.5-5.5 1.8-3 1.9-7.1 2-102.7 0-54.7-.3-101.2-.6-103.4-1.4-8-10.6-12.1-17.5-7.7zM99.2 521c-1.8 1.1-3.9 3.5-4.7 5.3-1.7 4.1-1.3 19.4.5 22.3 4.3 7 15.6 7 20 0 1.9-3 2.2-18.1.5-22.3-1.6-3.7-6.7-7.3-10.5-7.3-1.4 0-4 .9-5.8 2zM135 520.8c-5.4 2.6-6.9 6.7-6.6 17.5.3 9 .3 9.1 3.9 12.4 6 5.4 13.7 4.3 17.5-2.6 1.6-2.9 1.9-5.2 1.8-12.1-.3-9.5-1.3-12.2-5.9-15-4-2.4-6.2-2.5-10.7-.2zM169.2 521c-1.8 1.1-3.9 3.5-4.7 5.3-1.7 4.1-1.4 19.4.5 22.3 4.3 7 15.6 7 20 0 1.9-3 2.2-19.3.3-22.9-1.7-3.3-6.8-6.7-10.3-6.7-1.4 0-4 .9-5.8 2zM203.8 521.2c-4.3 2.7-5.6 6.9-5.4 16.8.3 9.2 1.3 11.8 5.7 14.4 5.6 3.3 13.4.9 16.2-4.9 2.1-4.4 1.7-19.3-.6-22.8-3.6-5.5-10.2-6.9-15.9-3.5zM239.3 521c-1.7 1-3.7 2.9-4.4 4.2-1.6 3-2.1 17.4-.7 21.4 2.2 6.3 10.8 9.3 16.8 5.8 4.4-2.6 5.8-6.9 5.6-16.6-.2-9.7-1.7-13.1-7.1-15.4-4.5-1.9-6.4-1.8-10.2.6zM276.5 519.7c-2.8.7-6.2 4.1-7.3 7.2-.5 1.4-.8 6.6-.8 11.5l.2 8.8 3.7 3.4c4.1 3.8 7.9 4.4 13.1 1.9 4.8-2.3 5.9-5 6.2-14.6.2-10.1-1.1-14-5.8-16.9-3.2-2-5.3-2.2-9.3-1.3zM310.1 520.3c-4.9 2.5-6.4 6-6.7 15.3-.1 4.7.3 9.8.9 11.3 2.3 6.1 10.9 8.9 16.6 5.5 4.5-2.7 5.5-5.1 5.6-15.1.2-10.8-1.3-14.5-7-16.9-4.2-1.7-6.3-1.8-9.4-.1zM346.5 519.7c-2.6.7-5.4 3.2-7 6.3-1.7 3.3-1.4 19.7.5 22.6 4.4 7 15.7 7 20 .1 1.8-3 2.1-18.4.5-22.5-2.3-5.2-8-7.9-14-6.5zM381.5 519.7c-6 1.5-8.4 7-8.1 18.4.3 9.2 1.8 12.7 6.4 14.8 5.2 2.4 12.3.4 15.2-4.3 1.8-2.9 2.2-18.2.5-22.3-2.1-5-8.5-8-14-6.6zM413.8 521.2c-4.3 2.7-5.6 6.8-5.4 16.7.3 9.3 1.3 11.9 5.7 14.5 5.7 3.4 12.5 1.5 15.7-4.3 2.6-4.7 2.6-19.3-.1-23.4-3.6-5.5-10.2-6.9-15.9-3.5zM450.3 520.5c-5.1 2.2-6.6 5.5-6.9 15.3-.3 9.4.8 12.6 5.2 16.1 5.2 4.1 13.9 1.8 16.8-4.4 1.8-3.7 1.6-18.9-.3-22.3-1.5-2.8-6.8-6.2-9.6-6.2-1.1.1-3.4.7-5.2 1.5zM484.2 521c-1.8 1.1-3.9 3.5-4.7 5.3-1.7 4.1-1.4 19.4.5 22.3 4.5 7.2 16.5 6.9 20.1-.5 1.8-3.7 2-17.9.4-21.8-1.6-3.7-6.8-7.3-10.5-7.3-1.4 0-4 .9-5.8 2zM520.3 520.5c-5.5 2.4-7.1 6.2-6.9 16.8.2 9.9 1.2 12.4 5.7 15.1 5.1 3 11.7 1.7 15.3-3.1 2.5-3.4 3.2-19.3 1-23.5-2.9-5.5-9.4-7.8-15.1-5.3zM554.2 521c-1.8 1.1-3.9 3.5-4.6 5.3-1.7 4-1.4 18.2.3 21.8 2.8 5.7 11.5 7.7 16.5 3.8 4.4-3.5 5.4-6.6 5.2-15.9-.3-9.6-1.3-12.2-5.9-15-4.1-2.5-7.4-2.5-11.5 0zM590.5 520.4c-5.6 2.5-6.8 4.7-7.1 14.3-.4 10.2 1.1 15 5.6 17.6 5.8 3.4 13.6 1.2 16.4-4.8 1.8-3.7 1.6-18.9-.3-22.3-1.5-2.8-6.8-6.2-9.6-6.2-1.1.1-3.3.7-5 1.4zM6.3 555.6C.1 558.7 0 559.3 0 605.7v41.8h48.5c47.3-.1 48.5-.1 51.2-2.1 3.9-2.9 5.5-6.3 4.9-10.6-.5-4.5-3.2-8.4-6.8-9.7-1.5-.5-13.4-1-26.5-1s-29.2-.1-35.8-.1H23.4v-30.3c-.1-33.9-.4-35.5-6.9-38.3-4.3-1.8-6.2-1.7-10.2.2zM683.3 555.4c-6.3 2.9-6.6 4.7-6.6 38.3l-.1 30.3h-3.5c-2 0-15.7.1-30.5.1-20.9 0-27.6.4-29.6 1.4-8.2 4.2-7.9 17.2.4 20.7 2.3.9 13.4 1.3 44.6 1.3h41.5l.3-41c.2-26.7-.1-42.2-.8-44.5-1.9-6.3-9.3-9.4-15.7-6.6z"/></svg>